<svg width="800" height="600" xmlns="http://www.w3.org/2000/svg" xmlns:xlink="http://www.w3.org/1999/xlink">
  <defs>
    <linearGradient id="svg_17" x1="1.193" y1="0.101" x2="-0.717" y2="1.389" gradientUnits="objectBoundingBox">
      <stop offset="0" stop-color="#ffba00"/>
      <stop offset="0.498" stop-color="#ff6c00"/>
      <stop offset="0.647" stop-color="#ffba00"/>
      <stop offset="0.863" stop-color="#ffba00"/>
      <stop offset="1" stop-color="#ffba00"/>
    </linearGradient>
    <linearGradient id="svg_15" x1="1.171" y1="0.022" x2="0.189" y2="1.068" gradientUnits="objectBoundingBox">
      <stop offset="0" stop-color="#fff" stop-opacity="0.6"/>
      <stop offset="0.686" stop-color="#fff" stop-opacity="0.051"/>
      <stop offset="1" stop-color="#fff" stop-opacity="0"/>
    </linearGradient>
    <linearGradient id="svg_13" x1="0.699" y1="0.078" x2="0.209" y2="1.476" xlink:href="#svg_17" xlink:href="#svg_17"/>
    <linearGradient id="svg_11" x1="2.48" y1="-5.297" x2="0.032" y2="2.248" xlink:href="#svg_17" href="#svg_17"/>
    <linearGradient id="svg_9" x1="2.465" y1="-4.879" x2="0.017" y2="2.068" xlink:href="#svg_17" href="#svg_17"/>
    <linearGradient id="svg_3" x1="0" y1="0.5" x2="1" y2="0.5" xlink:href="#svg_15" href="#svg_15"/>
  </defs>
  <g>
    <title>Layer 1</title>
    <g id="svg_1">
      <path id="svg_16" data-name="Path 2" d="m542.49298,684.5l540.50702,0l0,-769l-578.33002,0c-34.01801,19.44 -80.59998,54.269 -112.16998,112.5c-46.16003,85.132 -57.32703,214.89301 2,262c67.77496,53.815 176.02997,-41.14499 240,6c71.73798,52.87 78.81396,222.85498 -4,323c-25.64502,31.01099 -56.93201,51.70001 -88.00702,65.5z" fill="url(#svg_17)"/>
      <path id="svg_14" data-name="Path 3" d="m947,96.5c15.28601,107.84 67.58398,118.23499 80,206c17.14905,121.22299 -59.33301,264.966 -124,264c-47.96301,-0.716 -26.67102,-130.61902 -132,-228c-77.40002,-71.56201 -197.51599,-104.32599 -228,-70c-5.26801,5.93201 -7.56799,13.54001 -7.93201,22.159c36.815,-9.02301 72.151,-14.76498 99.43201,5.341c51.19,37.72601 69.44202,135.08099 45.617,224.14398a994.57001,994.57001 0 0 1 72.883,80.35602c31.90002,39.34399 47.91199,65.29999 60.58606,84l269.41394,0l0,-769l-109.98706,0c-33.06592,44.995 -33.50391,128.15601 -26.01294,181z" opacity="0.3" fill="url(#svg_15)"/>
      <path id="svg_12" data-name="Path 4" d="m71.42499,166.368c3.09,-22 -44.14999,-65.24701 -90.10002,-79.993c-13.04199,-4.185 -88.39998,-28.369 -114.08199,36.36c-5.543,13.97299 -16.084,46.978 -5.81401,60.59999c9.575,12.70001 56.67801,9.70001 122.80002,-13.33299c69.707,-24.274 85.30399,9.84001 87.19598,-3.634l0.00002,0z" opacity="0.14" fill="url(#svg_13)"/>
      <path id="svg_10" data-name="Path 5" d="m19.5,556c-114.35899,-14.22998 -240.60001,29.61401 -302.5,77.58002l0,50.91998l568.72803,0c-85.86003,-40.69 -146.41504,-113.591 -266.22803,-128.5z" fill="url(#svg_11)"/>
      <path id="svg_8" data-name="Path 6" d="m-283,591.33698l0,79.16302l523.72803,0c-85.86003,-40.69 -146.41504,-113.591 -266.22803,-128.5c-91.14999,-11.34198 -189.849,14.21002 -257.5,49.33698z" opacity="0.19" fill="url(#svg_9)"/>
      <circle id="svg_7" data-name="Ellipse 1" cx="824.5" cy="2" r="11.5" fill="#fff" opacity="0.2"/>
      <circle id="svg_6" data-name="Ellipse 2" cx="469" cy="280.5" r="3" fill="#fff" opacity="0.12"/>
      <circle id="svg_5" data-name="Ellipse 3" cx="843" cy="327.5" r="8" fill="#fff" opacity="0.2"/>
      <circle id="svg_4" data-name="Ellipse 4" cx="499" cy="-42.5" r="7" fill="#fff" opacity="0.13"/>
      <path id="svg_2" data-name="Path 7" d="m533,202.5c27.10602,-49.532 13.90997,-119.492 -20,-138c-25.70697,-14.03101 -48.90002,9.377 -72,-6c-22.22699,-14.8 -19.03998,-48.639 -19.67499,-73.317a271.263,271.263 0 0 0 -28.82501,42.817c-18.479,34.08 -31.341,75.311 -36.32703,115.52901a108.1,108.1 0 0 1 22.82703,31.97099c20.979,43.72 3.72198,69.37601 23,84c27.76703,21.064 101.612,-3.29999 131,-57z" opacity="0.3" fill="url(#svg_3)"/>
    </g>
  </g>
</svg>