<!--?xml version="1.0" standalone="no"?-->
<svg id="sw-js-blob-svg" viewBox="0 0 100 100" xmlns="http://www.w3.org/2000/svg" version="1.1">
    <defs>
        <linearGradient id="sw-gradient" x1="0" x2="1" y1="1" y2="0">
            <stop id="stop1" stop-color="rgba(248, 117, 55, 1)" offset="0%"></stop>
            <stop id="stop2" stop-color="rgba(251, 168, 31, 1)" offset="100%"></stop>
        </linearGradient>
    </defs>
    <path fill="url(#sw-gradient)"
          d="M21.8,-31.1C27,-26.2,29.2,-18.2,30.7,-10.6C32.2,-3.1,33.1,4,32.2,11.5C31.2,19.1,28.3,27.1,22.7,30.4C17,33.7,8.5,32.4,-0.5,33.1C-9.5,33.8,-19,36.6,-23.6,32.9C-28.2,29.2,-27.9,19.1,-30.7,10.1C-33.5,1.1,-39.3,-6.8,-38.6,-13.6C-37.8,-20.4,-30.5,-26.1,-22.9,-30.3C-15.4,-34.5,-7.7,-37.1,0.3,-37.5C8.3,-37.9,16.6,-36,21.8,-31.1Z"
          width="100%" height="100%" transform="translate(50 50)" stroke-width="0"
          style="transition: all 0.3s;"></path>
</svg>