<?xml version="1.0" encoding="utf-8"?><svg xmlns="http://www.w3.org/2000/svg" xmlns:xlink="http://www.w3.org/1999/xlink" width="1440" height="702" preserveAspectRatio="xMidYMid" viewBox="0 0 1440 702" style="z-index:1;margin-right:-2px;display:block;background-repeat-y:initial;background-repeat-x:initial;background-color:rgba(241, 242, 243, 0);animation-play-state:paused" ><g transform="translate(720,351) scale(1,1) translate(-720,-351)" style="transform:matrix(1, 0, 0, 1, 0, 0);animation-play-state:paused" ><linearGradient id="lg-0.5063008263340034" x1="0" x2="1" y1="0" y2="0" style="animation-play-state:paused" ><stop stop-color="#ff6c00" offset="0" style="animation-play-state:paused" ></stop>

  
<stop stop-color="#ffba00" offset="1" style="animation-play-state:paused" ></stop></linearGradient>
<path d="M 0 0 L 0 675.787 Q 144 550.184 288 520.387 T 576 510.199 T 864 478.509 T 1152 322.57 T 1440 257.419 L 1440 0 Z" fill="url(#lg-0.5063008263340034)" opacity="0.4" style="opacity:0.4;animation-play-state:paused" ></path>
<path d="M 0 0 L 0 648.675 Q 144 640.373 288 606.612 T 576 515.887 T 864 461.914 T 1152 351.981 T 1440 349.744 L 1440 0 Z" fill="url(#lg-0.5063008263340034)" opacity="0.4" style="opacity:0.4;animation-play-state:paused" ></path>
<path d="M 0 0 L 0 604.447 Q 144 609.443 288 578.622 T 576 461.582 T 864 460.815 T 1152 374.428 T 1440 361.864 L 1440 0 Z" fill="url(#lg-0.5063008263340034)" opacity="0.4" style="opacity:0.4;animation-play-state:paused" ></path>
<path d="M 0 0 L 0 592.095 Q 144 592.513 288 579.653 T 576 495.746 T 864 397.279 T 1152 381.788 T 1440 260.501 L 1440 0 Z" fill="url(#lg-0.5063008263340034)" opacity="0.4" style="opacity:0.4;animation-play-state:paused" ></path>
<path d="M 0 0 L 0 638.186 Q 144 589.073 288 562.319 T 576 514.337 T 864 442.698 T 1152 370.291 T 1440 337.164 L 1440 0 Z" fill="url(#lg-0.5063008263340034)" opacity="0.4" style="opacity:0.4;animation-play-state:paused" ></path></g></svg>